<svg width="33" height="33" viewBox="0 0 33 33" fill="none" xmlns="http://www.w3.org/2000/svg">
<path d="M11.5571 12.287H4.04271L2.61928 15.5796H0L6.57509 1H9.15299L15.6619 15.5796H12.9805L11.5571 12.287ZM10.5971 10.1001L7.78749 3.62433L4.98201 10.1001H10.5971Z" fill="#3D3B3A"/>
<g filter="url(#filter0_d_227_499)">
<path d="M21 24.7679H18.8613V19.4799H12.1387V24.7679H10V12H12.1387V17.5434H18.8613V12H21V24.7679Z" fill="#3D3B3A"/>
</g>
<mask id="mask0_227_499" style="mask-type:luminance" maskUnits="userSpaceOnUse" x="5" y="7" width="11" height="15">
<path d="M5.24902 7.0249H15.842V21.0213H5.24902V7.0249Z" fill="white"/>
</mask>
<g mask="url(#mask0_227_499)">
<mask id="mask1_227_499" style="mask-type:luminance" maskUnits="userSpaceOnUse" x="5" y="7" width="11" height="14">
<path d="M12.5999 7.18213L15.7974 9.07039L8.57059 20.7908L5.37305 18.9015L12.5999 7.18213Z" fill="white"/>
</mask>
<g mask="url(#mask1_227_499)">
<path d="M12.5991 7.18262L15.7966 9.07088L8.56669 20.7963L5.36914 18.907L12.5991 7.18262Z" fill="white"/>
</g>
</g>
<mask id="mask2_227_499" style="mask-type:luminance" maskUnits="userSpaceOnUse" x="5" y="8" width="8" height="8">
<path d="M5.61719 8.65967H12.7661V15.1627H5.61719V8.65967Z" fill="white"/>
</mask>
<g mask="url(#mask2_227_499)">
<mask id="mask3_227_499" style="mask-type:luminance" maskUnits="userSpaceOnUse" x="5" y="8" width="8" height="8">
<path d="M8.63845 8.82178L12.5592 10.9048L9.71172 15.0585L5.79004 12.9755L8.63845 8.82178Z" fill="white"/>
</mask>
<g mask="url(#mask3_227_499)">
<path d="M8.63849 8.82178L12.5592 10.9048L9.71177 15.0577L5.79102 12.9747L8.63849 8.82178Z" fill="white"/>
</g>
</g>
<mask id="mask4_227_499" style="mask-type:luminance" maskUnits="userSpaceOnUse" x="10" y="9" width="9" height="9">
<path d="M10.2812 9.61768H18.226V17.3935H10.2812V9.61768Z" fill="white"/>
</mask>
<g mask="url(#mask4_227_499)">
<mask id="mask5_227_499" style="mask-type:luminance" maskUnits="userSpaceOnUse" x="10" y="9" width="9" height="9">
<path d="M13.1949 9.78906L18.0869 12.6787L15.18 17.3917L10.2891 14.5031L13.1949 9.78906Z" fill="white"/>
</mask>
<g mask="url(#mask5_227_499)">
<path d="M13.1949 9.78906L18.0859 12.6787L15.18 17.3917L10.2891 14.5031L13.1949 9.78906Z" fill="white"/>
</g>
</g>
<path d="M2.5 23L14.5 5" stroke="#3D3B3A" stroke-width="2"/>
<g filter="url(#filter1_d_227_499)">
<path d="M14.5449 5.14502L22.4483 9.76291" stroke="#3D3B3A" stroke-width="2" shape-rendering="crispEdges"/>
</g>
<g filter="url(#filter2_d_227_499)">
<path d="M22.5546 10.8612L28.0473 2.99994" stroke="#3D3B3A" stroke-width="2" shape-rendering="crispEdges"/>
</g>
<mask id="mask6_227_499" style="mask-type:luminance" maskUnits="userSpaceOnUse" x="13" y="3" width="4" height="3">
<path d="M13 3H16.0639V6H13V3Z" fill="white"/>
</mask>
<g mask="url(#mask6_227_499)">
<mask id="mask7_227_499" style="mask-type:luminance" maskUnits="userSpaceOnUse" x="13" y="3" width="4" height="4">
<path d="M14.5326 3.00049C13.6853 3.00049 13 3.67243 13 4.50049C13 5.32855 13.6853 6.00049 14.5326 6.00049C15.3786 6.00049 16.0639 5.32855 16.0639 4.50049C16.0639 3.67243 15.3786 3.00049 14.5326 3.00049Z" fill="white"/>
</mask>
<g mask="url(#mask7_227_499)">
<g filter="url(#filter3_d_227_499)">
<path d="M13 3.00049H16.0639V6.00049H13V3.00049Z" fill="#3D3B3A"/>
</g>
</g>
</g>
<mask id="mask8_227_499" style="mask-type:luminance" maskUnits="userSpaceOnUse" x="21" y="9" width="4" height="3">
<path d="M22.5326 9C21.6853 9 21 9.67194 21 10.5C21 11.3281 21.6853 12 22.5326 12C23.3786 12 24.0639 11.3281 24.0639 10.5C24.0639 9.67194 23.3786 9 22.5326 9Z" fill="white"/>
</mask>
<g mask="url(#mask8_227_499)">
<g filter="url(#filter4_d_227_499)">
<path d="M21 9H24.0639V12H21V9Z" fill="#3D3B3A"/>
</g>
</g>
<path d="M27 2.09961L28.9665 1.82523L28.6852 3.74893" stroke="#3D3B3A" stroke-width="2" stroke-linecap="round" stroke-linejoin="round"/>
<defs>
<filter id="filter0_d_227_499" x="6" y="12" width="19" height="20.7681" filterUnits="userSpaceOnUse" color-interpolation-filters="sRGB">
<feFlood flood-opacity="0" result="BackgroundImageFix"/>
<feColorMatrix in="SourceAlpha" type="matrix" values="0 0 0 0 0 0 0 0 0 0 0 0 0 0 0 0 0 0 127 0" result="hardAlpha"/>
<feOffset dy="4"/>
<feGaussianBlur stdDeviation="2"/>
<feComposite in2="hardAlpha" operator="out"/>
<feColorMatrix type="matrix" values="0 0 0 0 0 0 0 0 0 0 0 0 0 0 0 0 0 0 0.25 0"/>
<feBlend mode="normal" in2="BackgroundImageFix" result="effect1_dropShadow_227_499"/>
<feBlend mode="normal" in="SourceGraphic" in2="effect1_dropShadow_227_499" result="shape"/>
</filter>
<filter id="filter1_d_227_499" x="10.0244" y="4.2915" width="16.9443" height="14.3252" filterUnits="userSpaceOnUse" color-interpolation-filters="sRGB">
<feFlood flood-opacity="0" result="BackgroundImageFix"/>
<feColorMatrix in="SourceAlpha" type="matrix" values="0 0 0 0 0 0 0 0 0 0 0 0 0 0 0 0 0 0 127 0" result="hardAlpha"/>
<feOffset dy="4"/>
<feGaussianBlur stdDeviation="2"/>
<feComposite in2="hardAlpha" operator="out"/>
<feColorMatrix type="matrix" values="0 0 0 0 0 0 0 0 0 0 0 0 0 0 0 0 0 0 0.25 0"/>
<feBlend mode="normal" in2="BackgroundImageFix" result="effect1_dropShadow_227_499"/>
<feBlend mode="normal" in="SourceGraphic" in2="effect1_dropShadow_227_499" result="shape"/>
</filter>
<filter id="filter2_d_227_499" x="17.7217" y="2.44336" width="15.1582" height="16.9741" filterUnits="userSpaceOnUse" color-interpolation-filters="sRGB">
<feFlood flood-opacity="0" result="BackgroundImageFix"/>
<feColorMatrix in="SourceAlpha" type="matrix" values="0 0 0 0 0 0 0 0 0 0 0 0 0 0 0 0 0 0 127 0" result="hardAlpha"/>
<feOffset dy="4"/>
<feGaussianBlur stdDeviation="2"/>
<feComposite in2="hardAlpha" operator="out"/>
<feColorMatrix type="matrix" values="0 0 0 0 0 0 0 0 0 0 0 0 0 0 0 0 0 0 0.25 0"/>
<feBlend mode="normal" in2="BackgroundImageFix" result="effect1_dropShadow_227_499"/>
<feBlend mode="normal" in="SourceGraphic" in2="effect1_dropShadow_227_499" result="shape"/>
</filter>
<filter id="filter3_d_227_499" x="9" y="3.00049" width="11.0635" height="11" filterUnits="userSpaceOnUse" color-interpolation-filters="sRGB">
<feFlood flood-opacity="0" result="BackgroundImageFix"/>
<feColorMatrix in="SourceAlpha" type="matrix" values="0 0 0 0 0 0 0 0 0 0 0 0 0 0 0 0 0 0 127 0" result="hardAlpha"/>
<feOffset dy="4"/>
<feGaussianBlur stdDeviation="2"/>
<feComposite in2="hardAlpha" operator="out"/>
<feColorMatrix type="matrix" values="0 0 0 0 0 0 0 0 0 0 0 0 0 0 0 0 0 0 0.25 0"/>
<feBlend mode="normal" in2="BackgroundImageFix" result="effect1_dropShadow_227_499"/>
<feBlend mode="normal" in="SourceGraphic" in2="effect1_dropShadow_227_499" result="shape"/>
</filter>
<filter id="filter4_d_227_499" x="17" y="9" width="11.0635" height="11" filterUnits="userSpaceOnUse" color-interpolation-filters="sRGB">
<feFlood flood-opacity="0" result="BackgroundImageFix"/>
<feColorMatrix in="SourceAlpha" type="matrix" values="0 0 0 0 0 0 0 0 0 0 0 0 0 0 0 0 0 0 127 0" result="hardAlpha"/>
<feOffset dy="4"/>
<feGaussianBlur stdDeviation="2"/>
<feComposite in2="hardAlpha" operator="out"/>
<feColorMatrix type="matrix" values="0 0 0 0 0 0 0 0 0 0 0 0 0 0 0 0 0 0 0.25 0"/>
<feBlend mode="normal" in2="BackgroundImageFix" result="effect1_dropShadow_227_499"/>
<feBlend mode="normal" in="SourceGraphic" in2="effect1_dropShadow_227_499" result="shape"/>
</filter>
</defs>
</svg>
