<svg width="42" height="40" viewBox="0 0 42 40" fill="none" xmlns="http://www.w3.org/2000/svg">
<path d="M15.0884 14.7358H5.27796L3.4196 19.0344H0L8.58411 0H11.9497L20.4474 19.0344H16.9467L15.0884 14.7358ZM13.8351 11.8806L10.167 3.42619L6.50426 11.8806H13.8351Z" fill="#3D3B3A"/>
<g filter="url(#filter0_d_229_500)">
<path d="M27.5076 31.6692H24.4925V24.7654H15.0151V31.6692H12V15H15.0151V22.2372H24.4925V15H27.5076V31.6692Z" fill="#3D3B3A"/>
</g>
<mask id="mask0_229_500" style="mask-type:luminance" maskUnits="userSpaceOnUse" x="6" y="7" width="15" height="19">
<path d="M6.85156 7.86621H21V26H6.85156V7.86621Z" fill="white"/>
</mask>
<g mask="url(#mask0_229_500)">
<mask id="mask1_229_500" style="mask-type:luminance" maskUnits="userSpaceOnUse" x="7" y="8" width="14" height="18">
<path d="M16.672 8.06982L20.9428 10.5163L11.2903 25.7012L7.01953 23.2535L16.672 8.06982Z" fill="white"/>
</mask>
<g mask="url(#mask1_229_500)">
<path d="M16.6712 8.06982L20.942 10.5163L11.2854 25.7078L7.01465 23.26L16.6712 8.06982Z" fill="white"/>
</g>
</g>
<mask id="mask2_229_500" style="mask-type:luminance" maskUnits="userSpaceOnUse" x="7" y="10" width="10" height="9">
<path d="M7.33398 10H16.6673V18.4901H7.33398V10Z" fill="white"/>
</mask>
<g mask="url(#mask2_229_500)">
<mask id="mask3_229_500" style="mask-type:luminance" maskUnits="userSpaceOnUse" x="7" y="10" width="10" height="9">
<path d="M11.2754 10.2109L16.3941 12.9304L12.6766 18.3533L7.55664 15.6338L11.2754 10.2109Z" fill="white"/>
</mask>
<g mask="url(#mask3_229_500)">
<path d="M11.2761 10.2114L16.3949 12.9309L12.6773 18.3527L7.55859 15.6333L11.2761 10.2114Z" fill="white"/>
</g>
</g>
<mask id="mask4_229_500" style="mask-type:luminance" maskUnits="userSpaceOnUse" x="13" y="11" width="11" height="11">
<path d="M13.4219 11.2505H23.7941V21.4022H13.4219V11.2505Z" fill="white"/>
</mask>
<g mask="url(#mask4_229_500)">
<mask id="mask5_229_500" style="mask-type:luminance" maskUnits="userSpaceOnUse" x="13" y="11" width="11" height="11">
<path d="M17.2273 11.4731L23.6141 15.2457L19.819 21.3988L13.4336 17.6276L17.2273 11.4731Z" fill="white"/>
</mask>
<g mask="url(#mask5_229_500)">
<path d="M17.2273 11.4731L23.6127 15.2457L19.819 21.3988L13.4336 17.6276L17.2273 11.4731Z" fill="white"/>
</g>
</g>
<path d="M2.55837 28.9726L20.7736 5.19837" stroke="#3D3B3A" stroke-width="3"/>
<g filter="url(#filter1_d_229_500)">
<path d="M19 6L30.15 13.7539" stroke="#3D3B3A" stroke-width="3" shape-rendering="crispEdges"/>
</g>
<g filter="url(#filter2_d_229_500)">
<path d="M28.5 13.5L36.3242 3.88978" stroke="#3D3B3A" stroke-width="3" shape-rendering="crispEdges"/>
</g>
<mask id="mask6_229_500" style="mask-type:luminance" maskUnits="userSpaceOnUse" x="18" y="4" width="4" height="4">
<path d="M18 4H22V8H18V4Z" fill="white"/>
</mask>
<g mask="url(#mask6_229_500)">
<mask id="mask7_229_500" style="mask-type:luminance" maskUnits="userSpaceOnUse" x="18" y="4" width="4" height="5">
<path d="M20.0008 4.00049C18.8946 4.00049 18 4.89641 18 6.00049C18 7.10457 18.8946 8.00049 20.0008 8.00049C21.1054 8.00049 22 7.10457 22 6.00049C22 4.89641 21.1054 4.00049 20.0008 4.00049Z" fill="white"/>
</mask>
<g mask="url(#mask7_229_500)">
<g filter="url(#filter3_d_229_500)">
<path d="M18 4.00049H22V8.00049H18V4.00049Z" fill="#3D3B3A"/>
</g>
</g>
</g>
<mask id="mask8_229_500" style="mask-type:luminance" maskUnits="userSpaceOnUse" x="27" y="12" width="4" height="4">
<path d="M27 12H31V16H27V12Z" fill="white"/>
</mask>
<g mask="url(#mask8_229_500)">
<mask id="mask9_229_500" style="mask-type:luminance" maskUnits="userSpaceOnUse" x="27" y="12" width="4" height="5">
<path d="M29.0008 12.0005C27.8946 12.0005 27 12.8964 27 14.0005C27 15.1046 27.8946 16.0005 29.0008 16.0005C30.1054 16.0005 31 15.1046 31 14.0005C31 12.8964 30.1054 12.0005 29.0008 12.0005Z" fill="white"/>
</mask>
<g mask="url(#mask9_229_500)">
<g filter="url(#filter4_d_229_500)">
<path d="M27 12.0005H31V16.0005H27V12.0005Z" fill="#3D3B3A"/>
</g>
</g>
</g>
<path d="M35 3.43555L37.5674 3.07733L37.2001 5.58881" stroke="#3D3B3A" stroke-width="2.5" stroke-linecap="round" stroke-linejoin="round"/>
<defs>
<filter id="filter0_d_229_500" x="8" y="15" width="23.5078" height="24.6689" filterUnits="userSpaceOnUse" color-interpolation-filters="sRGB">
<feFlood flood-opacity="0" result="BackgroundImageFix"/>
<feColorMatrix in="SourceAlpha" type="matrix" values="0 0 0 0 0 0 0 0 0 0 0 0 0 0 0 0 0 0 127 0" result="hardAlpha"/>
<feOffset dy="4"/>
<feGaussianBlur stdDeviation="2"/>
<feComposite in2="hardAlpha" operator="out"/>
<feColorMatrix type="matrix" values="0 0 0 0 0 0 0 0 0 0 0 0 0 0 0 0 0 0 0.25 0"/>
<feBlend mode="normal" in2="BackgroundImageFix" result="effect1_dropShadow_229_500"/>
<feBlend mode="normal" in="SourceGraphic" in2="effect1_dropShadow_229_500" result="shape"/>
</filter>
<filter id="filter1_d_229_500" x="14.1191" y="4.78271" width="20.9111" height="18.1885" filterUnits="userSpaceOnUse" color-interpolation-filters="sRGB">
<feFlood flood-opacity="0" result="BackgroundImageFix"/>
<feColorMatrix in="SourceAlpha" type="matrix" values="0 0 0 0 0 0 0 0 0 0 0 0 0 0 0 0 0 0 127 0" result="hardAlpha"/>
<feOffset dy="4"/>
<feGaussianBlur stdDeviation="2"/>
<feComposite in2="hardAlpha" operator="out"/>
<feColorMatrix type="matrix" values="0 0 0 0 0 0 0 0 0 0 0 0 0 0 0 0 0 0 0.25 0"/>
<feBlend mode="normal" in2="BackgroundImageFix" result="effect1_dropShadow_229_500"/>
<feBlend mode="normal" in="SourceGraphic" in2="effect1_dropShadow_229_500" result="shape"/>
</filter>
<filter id="filter2_d_229_500" x="23.3174" y="2.96729" width="18.1895" height="19.4551" filterUnits="userSpaceOnUse" color-interpolation-filters="sRGB">
<feFlood flood-opacity="0" result="BackgroundImageFix"/>
<feColorMatrix in="SourceAlpha" type="matrix" values="0 0 0 0 0 0 0 0 0 0 0 0 0 0 0 0 0 0 127 0" result="hardAlpha"/>
<feOffset dy="4"/>
<feGaussianBlur stdDeviation="2"/>
<feComposite in2="hardAlpha" operator="out"/>
<feColorMatrix type="matrix" values="0 0 0 0 0 0 0 0 0 0 0 0 0 0 0 0 0 0 0.25 0"/>
<feBlend mode="normal" in2="BackgroundImageFix" result="effect1_dropShadow_229_500"/>
<feBlend mode="normal" in="SourceGraphic" in2="effect1_dropShadow_229_500" result="shape"/>
</filter>
<filter id="filter3_d_229_500" x="14" y="4.00049" width="12" height="12" filterUnits="userSpaceOnUse" color-interpolation-filters="sRGB">
<feFlood flood-opacity="0" result="BackgroundImageFix"/>
<feColorMatrix in="SourceAlpha" type="matrix" values="0 0 0 0 0 0 0 0 0 0 0 0 0 0 0 0 0 0 127 0" result="hardAlpha"/>
<feOffset dy="4"/>
<feGaussianBlur stdDeviation="2"/>
<feComposite in2="hardAlpha" operator="out"/>
<feColorMatrix type="matrix" values="0 0 0 0 0 0 0 0 0 0 0 0 0 0 0 0 0 0 0.25 0"/>
<feBlend mode="normal" in2="BackgroundImageFix" result="effect1_dropShadow_229_500"/>
<feBlend mode="normal" in="SourceGraphic" in2="effect1_dropShadow_229_500" result="shape"/>
</filter>
<filter id="filter4_d_229_500" x="23" y="12.0005" width="12" height="12" filterUnits="userSpaceOnUse" color-interpolation-filters="sRGB">
<feFlood flood-opacity="0" result="BackgroundImageFix"/>
<feColorMatrix in="SourceAlpha" type="matrix" values="0 0 0 0 0 0 0 0 0 0 0 0 0 0 0 0 0 0 127 0" result="hardAlpha"/>
<feOffset dy="4"/>
<feGaussianBlur stdDeviation="2"/>
<feComposite in2="hardAlpha" operator="out"/>
<feColorMatrix type="matrix" values="0 0 0 0 0 0 0 0 0 0 0 0 0 0 0 0 0 0 0.25 0"/>
<feBlend mode="normal" in2="BackgroundImageFix" result="effect1_dropShadow_229_500"/>
<feBlend mode="normal" in="SourceGraphic" in2="effect1_dropShadow_229_500" result="shape"/>
</filter>
</defs>
</svg>
